<svg width="114" height="27" viewBox="0 0 114 27" fill="none" xmlns="http://www.w3.org/2000/svg">
<rect x="0.000610352" y="12.4644" width="32" height="1.40873" rx="0.704365" fill="#E3B873"/>
<rect x="82.0006" y="12.4644" width="32" height="1.40873" rx="0.704365" fill="#E3B873"/>
<path d="M62.4261 8.41185L57.5806 7.0849C57.2169 6.98584 56.843 6.95097 56.4726 6.96332V6.95194H50.5833L40.1396 3.78412L40.1712 17.1791L43.1692 18.5469L44.9443 14.5859L47.5373 15.5329L48.2097 13.9991L49.1835 14.888L48.275 15.7174C47.9592 16.0057 47.7783 16.4043 47.7783 16.8121C47.7783 17.6467 48.5074 18.3253 49.4143 18.3546C49.4459 19.1635 50.1583 19.8138 51.0445 19.8426C51.0761 20.6515 51.7885 21.3018 52.6747 21.3306C52.7073 22.1584 53.4502 22.824 54.3648 22.824C54.8114 22.824 55.2484 22.6588 55.5639 22.3706L56.4726 21.5413L56.8377 21.8746C57.1535 22.1628 57.5902 22.328 58.037 22.328C58.9516 22.328 59.6948 21.6624 59.7269 20.8346C60.6131 20.8058 61.3255 20.1555 61.3571 19.3466C62.2433 19.3178 62.9557 18.6675 62.9873 17.8586C63.8942 17.8288 64.6236 17.1507 64.6236 16.3161C64.6236 16.2457 64.6111 16.1762 64.6008 16.1062L65.3806 15.3944L66.0107 16.5452L69.424 14.9873L71.4866 18.5818L73.8613 17.1374V4.31766L62.4261 8.41185ZM42.6062 17.181L41.257 16.5651L41.2296 5.15999L47.1842 6.96647L42.6062 17.181ZM46.9321 14.2433L45.3553 13.6678L48.2179 7.27986L49.7757 7.75261L46.9321 14.2433ZM48.8651 16.8121C48.8651 16.6656 48.9295 16.5225 49.0431 16.4186L49.9985 15.5467C50.1121 15.4431 50.2692 15.384 50.4294 15.384C50.7654 15.384 51.0386 15.6337 51.0386 15.94C51.0386 16.0863 50.9739 16.2297 50.8603 16.3333L49.9052 17.2055C49.7916 17.3091 49.6345 17.368 49.4743 17.368C49.1383 17.368 48.8651 17.1185 48.8651 16.8121ZM50.4952 18.3001C50.4952 18.1536 50.5597 18.0105 50.6733 17.9066L51.6287 17.0347C51.7423 16.9311 51.8994 16.872 52.0596 16.872C52.3955 16.872 52.6688 17.1217 52.6688 17.428C52.6688 17.5743 52.6041 17.7177 52.4905 17.8213L51.5353 18.6935C51.4218 18.7971 51.2647 18.856 51.1044 18.856C50.7685 18.856 50.4952 18.6065 50.4952 18.3001ZM52.1254 19.7881C52.1254 19.6416 52.1899 19.4985 52.3035 19.3946L53.2589 18.5227C53.3725 18.4191 53.5296 18.36 53.6898 18.36C54.0257 18.36 54.299 18.6097 54.299 18.916C54.299 19.0623 54.2343 19.2057 54.1207 19.3093L53.1655 20.1815C53.052 20.2851 52.8949 20.344 52.7346 20.344C52.3987 20.344 52.1254 20.0945 52.1254 19.7881ZM55.7509 20.7973L54.7957 21.6695C54.6822 21.7731 54.5251 21.832 54.3648 21.832C54.0289 21.832 53.7556 21.5825 53.7556 21.2762C53.7556 21.1296 53.8201 20.9865 53.9337 20.8826L54.8891 20.0107C55.0027 19.9071 55.1598 19.848 55.32 19.848C55.6559 19.848 55.9292 20.0977 55.9292 20.404C55.9292 20.5503 55.8645 20.6937 55.7509 20.7973ZM62.9276 16.872C62.7673 16.872 62.6103 16.8131 62.4967 16.7095L57.9436 12.5533L57.1752 13.2546L61.7283 17.4106C61.8419 17.5145 61.9066 17.6576 61.9066 17.8041C61.9066 18.1105 61.6333 18.36 61.2974 18.36C61.1371 18.36 60.9801 18.3011 60.8665 18.1975L56.3134 14.0413L55.545 14.7426L60.0981 18.8986C60.2117 19.0025 60.2764 19.1456 60.2764 19.2921C60.2764 19.5985 60.0031 19.848 59.6672 19.848C59.5069 19.848 59.3499 19.7891 59.2363 19.6855L54.6832 15.5293L53.9148 16.2306L58.4679 20.3866C58.5815 20.4905 58.6462 20.6336 58.6462 20.7801C58.6462 21.0865 58.3729 21.336 58.037 21.336C57.8768 21.336 57.7197 21.2771 57.6061 21.1735L56.9932 20.6138C57.0041 20.5445 57.016 20.475 57.016 20.404C57.016 19.5692 56.2866 18.8908 55.3797 18.8615C55.3482 18.0526 54.6357 17.4024 53.7495 17.3735C53.718 16.5646 53.0055 15.9143 52.1193 15.8855C52.0867 15.0577 51.344 14.392 50.4294 14.392C50.3522 14.392 50.2761 14.4033 50.1997 14.4128L48.6483 12.9967L50.863 7.94394H54.074L52.0787 9.76544C51.758 10.0575 51.582 10.4465 51.582 10.8601C51.582 11.7136 52.3427 12.408 53.278 12.408C53.7246 12.408 54.1616 12.2428 54.4771 11.9546L55.9168 10.6402C56.2113 10.3724 56.73 10.3619 57.0367 10.6184L58.3071 11.6814C58.7293 12.0345 59.1984 12.3283 59.7004 12.5583L63.3585 15.9226C63.4721 16.0265 63.5368 16.1696 63.5368 16.3161C63.5368 16.6225 63.2635 16.872 62.9276 16.872ZM64.0802 15.1786L61.8466 13.1243C62.0462 13.1415 62.2473 13.152 62.45 13.152V12.16C61.1849 12.16 59.9742 11.7301 59.0418 10.9497L57.7712 9.88726C57.054 9.28615 55.8374 9.31012 55.1489 9.93933L53.7095 11.2534C53.5954 11.3566 53.4383 11.4159 53.278 11.4159C52.9421 11.4159 52.6688 11.1665 52.6688 10.8601C52.6688 10.7112 52.7317 10.5719 52.8469 10.4666L54.9183 8.57605C55.527 8.02047 56.441 7.80904 57.2681 8.03525L62.0685 9.3496L64.8674 14.46L64.0802 15.1786ZM66.4966 15.2144L63.2019 9.19944L65.6082 8.33774L68.9196 14.1084L66.4966 15.2144ZM72.7746 16.6068L71.8886 17.1459L66.626 7.97373L72.7746 5.77248V16.6068Z" fill="#E3B873"/>
<ellipse cx="59.6667" cy="1.23856" rx="0.485591" ry="0.443237" fill="#E3B873"/>
<ellipse cx="47.4099" cy="22.1678" rx="0.485591" ry="0.443237" fill="#E3B873"/>
<ellipse cx="49.468" cy="23.709" rx="0.485591" ry="0.443237" fill="#E3B873"/>
<ellipse cx="51.8166" cy="24.8397" rx="0.485591" ry="0.443237" fill="#E3B873"/>
<ellipse cx="54.3655" cy="25.5631" rx="0.485591" ry="0.443237" fill="#E3B873"/>
<ellipse cx="62.2141" cy="1.94409" rx="0.485591" ry="0.443237" fill="#E3B873"/>
<ellipse cx="64.5632" cy="3.08905" rx="0.485591" ry="0.443237" fill="#E3B873"/>
<path d="M66.8305 2.44839V5.00572H63.9971" stroke="#E3B873" stroke-linecap="round" stroke-linejoin="round"/>
<path d="M45.0104 21.8788L45.0104 19.8097L47.2744 19.8097" stroke="#E3B873" stroke-linecap="round" stroke-linejoin="round"/>
<path d="M47.8008 4.25842C49.3359 3.03913 50.3124 2.47816 52.1519 1.82256C54.1033 1.12708 55.4237 0.963765 57.5441 0.963776" stroke="#E3B873" stroke-linecap="round"/>
<path d="M68.4046 20.2216C67.2633 21.8465 65.1376 23.433 63.4089 24.3042C61.575 25.2284 59.6102 25.7492 56.9931 25.8737" stroke="#E3B873" stroke-linecap="round"/>
</svg>
