<svg width="196" height="67" viewBox="0 0 196 67" fill="none" xmlns="http://www.w3.org/2000/svg">
<path d="M16.4156 18.3C15.109 18.3 13.9623 18.02 12.9756 17.46C12.0023 16.8867 11.249 16.0533 10.7156 14.96C10.1823 13.8667 9.91563 12.5467 9.91563 11C9.91563 9.45333 10.1823 8.13333 10.7156 7.04C11.249 5.94667 12.0023 5.12 12.9756 4.56C13.9623 3.98667 15.109 3.7 16.4156 3.7C17.7223 3.7 18.8623 3.98667 19.8356 4.56C20.8223 5.12 21.5823 5.94667 22.1156 7.04C22.649 8.13333 22.9156 9.45333 22.9156 11C22.9156 12.5467 22.649 13.8667 22.1156 14.96C21.5823 16.0533 20.8223 16.8867 19.8356 17.46C18.8623 18.02 17.7223 18.3 16.4156 18.3ZM16.4156 17.9C16.9356 17.9 17.4156 17.68 17.8556 17.24C18.309 16.8 18.6823 16.0667 18.9756 15.04C19.269 14.0133 19.4156 12.6667 19.4156 11C19.4156 9.33333 19.269 7.98667 18.9756 6.96C18.6823 5.93333 18.309 5.2 17.8556 4.76C17.4156 4.32 16.9356 4.1 16.4156 4.1C15.8956 4.1 15.409 4.32 14.9556 4.76C14.5156 5.2 14.149 5.93333 13.8556 6.96C13.5623 7.98667 13.4156 9.33333 13.4156 11C13.4156 12.6667 13.5623 14.0133 13.8556 15.04C14.149 16.0667 14.5156 16.8 14.9556 17.24C15.409 17.68 15.8956 17.9 16.4156 17.9ZM26.6203 7.4V17.1L28.2203 17.7V18H24.4203V17.7L26.0203 17.1V4.7L24.6203 4.3V4H26.7203C27.427 4 27.9803 4.12667 28.3803 4.38C28.7803 4.63333 29.1603 4.97333 29.5203 5.4L35.9203 12.9V4.9L34.3203 4.3V4H38.1203V4.3L36.5203 4.9V18.3H35.9203L26.6203 7.4ZM39.4297 17.7L40.6297 17.4V4.6L39.4297 4.3V4H45.1297V4.3L43.9297 4.6V17.5H48.2297C48.2297 16.66 48.443 15.88 48.8697 15.16C49.0564 14.8533 49.2764 14.6 49.5297 14.4H50.1297V18H39.4297V17.7ZM51.6367 18V17.7L52.8367 17.4V4.6L51.6367 4.3V4H57.3367V4.3L56.1367 4.6V17.4L57.3367 17.7V18H51.6367ZM60.9367 7.4V17.1L62.5367 17.7V18H58.7367V17.7L60.3367 17.1V4.7L58.9367 4.3V4H61.0367C61.7434 4 62.2967 4.12667 62.6967 4.38C63.0967 4.63333 63.4767 4.97333 63.8367 5.4L70.2367 12.9V4.9L68.6367 4.3V4H72.4367V4.3L70.8367 4.9V18.3H70.2367L60.9367 7.4ZM73.7461 17.7L74.9461 17.4V4.6L73.7461 4.3V4H84.4461V7.6H83.8461C83.5928 7.4 83.3728 7.14667 83.1861 6.84C82.7594 6.12 82.5461 5.34 82.5461 4.5H78.2461V10.8H80.5461C80.6394 10.2933 80.8128 9.82 81.0661 9.38C81.1728 9.18 81.2994 8.98667 81.4461 8.8H82.0461V13.3H81.4461C81.2994 13.1133 81.1728 12.92 81.0661 12.72C80.8128 12.28 80.6394 11.8067 80.5461 11.3H78.2461V17.5H82.9461C82.9461 16.66 83.1594 15.88 83.5861 15.16C83.7728 14.8533 83.9928 14.6 84.2461 14.4H84.8461V18H73.7461V17.7ZM98.9422 18.3C96.8089 18.3 95.1422 17.6667 93.9422 16.4C92.7422 15.1333 92.1422 13.3333 92.1422 11C92.1422 9.46667 92.4022 8.15333 92.9222 7.06C93.4555 5.95333 94.1955 5.12 95.1422 4.56C96.1022 3.98667 97.2089 3.7 98.4622 3.7C99.2222 3.7 99.9889 3.92 100.762 4.36C101.056 4.52 101.349 4.73333 101.642 5C101.869 4.65333 102.102 4.38 102.342 4.18C102.582 4.00667 102.716 3.91333 102.742 3.9H103.242V7.7H102.442C102.269 7.06 102.009 6.48 101.662 5.96C101.342 5.45333 100.942 5.03333 100.462 4.7C99.9955 4.36667 99.4555 4.2 98.8422 4.2C97.9222 4.2 97.1555 4.73333 96.5422 5.8C95.9422 6.86667 95.6422 8.6 95.6422 11C95.6422 13.44 95.9689 15.1867 96.6222 16.24C97.2889 17.28 98.1955 17.8 99.3422 17.8C99.9689 17.8 100.562 17.6267 101.122 17.28C101.696 16.92 102.156 16.4467 102.502 15.86C102.862 15.2733 103.042 14.6533 103.042 14H103.542C103.542 14.76 103.336 15.4733 102.922 16.14C102.522 16.7933 101.969 17.32 101.262 17.72C100.569 18.1067 99.7955 18.3 98.9422 18.3ZM111.259 18.3C109.953 18.3 108.806 18.02 107.819 17.46C106.846 16.8867 106.093 16.0533 105.559 14.96C105.026 13.8667 104.759 12.5467 104.759 11C104.759 9.45333 105.026 8.13333 105.559 7.04C106.093 5.94667 106.846 5.12 107.819 4.56C108.806 3.98667 109.953 3.7 111.259 3.7C112.566 3.7 113.706 3.98667 114.679 4.56C115.666 5.12 116.426 5.94667 116.959 7.04C117.493 8.13333 117.759 9.45333 117.759 11C117.759 12.5467 117.493 13.8667 116.959 14.96C116.426 16.0533 115.666 16.8867 114.679 17.46C113.706 18.02 112.566 18.3 111.259 18.3ZM111.259 17.9C111.779 17.9 112.259 17.68 112.699 17.24C113.153 16.8 113.526 16.0667 113.819 15.04C114.113 14.0133 114.259 12.6667 114.259 11C114.259 9.33333 114.113 7.98667 113.819 6.96C113.526 5.93333 113.153 5.2 112.699 4.76C112.259 4.32 111.779 4.1 111.259 4.1C110.739 4.1 110.253 4.32 109.799 4.76C109.359 5.2 108.993 5.93333 108.699 6.96C108.406 7.98667 108.259 9.33333 108.259 11C108.259 12.6667 108.406 14.0133 108.699 15.04C108.993 16.0667 109.359 16.8 109.799 17.24C110.253 17.68 110.739 17.9 111.259 17.9ZM121.464 7.4V17.1L123.064 17.7V18H119.264V17.7L120.864 17.1V4.7L119.464 4.3V4H121.564C122.271 4 122.824 4.12667 123.224 4.38C123.624 4.63333 124.004 4.97333 124.364 5.4L130.764 12.9V4.9L129.164 4.3V4H132.964V4.3L131.364 4.9V18.3H130.764L121.464 7.4ZM136.969 17.7L138.169 17.4V4.5H135.869C135.869 5.31333 135.649 6.09333 135.209 6.84C135.022 7.14667 134.809 7.4 134.569 7.6H133.969V4H145.669V7.6H145.069C144.815 7.4 144.595 7.14667 144.409 6.84C143.982 6.12 143.769 5.34 143.769 4.5H141.469V17.4L142.669 17.7V18H136.969V17.7ZM147.164 17.7L148.364 17.4V4.6L147.164 4.3V4H152.464C154.731 4 156.364 4.34667 157.364 5.04C158.364 5.72 158.864 6.67333 158.864 7.9C158.864 8.72667 158.644 9.4 158.204 9.92C157.764 10.4267 157.197 10.8067 156.504 11.06C155.771 11.34 154.991 11.4867 154.164 11.5V11.6C154.657 11.6267 155.091 11.7 155.464 11.82C156.397 12.1133 157.031 12.64 157.364 13.4L159.164 17.4L160.164 17.7V18H157.364C156.271 18 155.471 17.4333 154.964 16.3L152.964 11.8H151.664V17.4L153.064 17.7V18H147.164V17.7ZM152.464 11.3C153.397 11.3 154.131 11.0067 154.664 10.42C155.197 9.83333 155.464 8.99333 155.464 7.9C155.464 6.80667 155.197 5.96667 154.664 5.38C154.131 4.79333 153.397 4.5 152.464 4.5H151.664V11.3H152.464ZM167.373 18.3C166.066 18.3 164.919 18.02 163.933 17.46C162.959 16.8867 162.206 16.0533 161.673 14.96C161.139 13.8667 160.873 12.5467 160.873 11C160.873 9.45333 161.139 8.13333 161.673 7.04C162.206 5.94667 162.959 5.12 163.933 4.56C164.919 3.98667 166.066 3.7 167.373 3.7C168.679 3.7 169.819 3.98667 170.793 4.56C171.779 5.12 172.539 5.94667 173.073 7.04C173.606 8.13333 173.873 9.45333 173.873 11C173.873 12.5467 173.606 13.8667 173.073 14.96C172.539 16.0533 171.779 16.8867 170.793 17.46C169.819 18.02 168.679 18.3 167.373 18.3ZM167.373 17.9C167.893 17.9 168.373 17.68 168.813 17.24C169.266 16.8 169.639 16.0667 169.933 15.04C170.226 14.0133 170.373 12.6667 170.373 11C170.373 9.33333 170.226 7.98667 169.933 6.96C169.639 5.93333 169.266 5.2 168.813 4.76C168.373 4.32 167.893 4.1 167.373 4.1C166.853 4.1 166.366 4.32 165.913 4.76C165.473 5.2 165.106 5.93333 164.813 6.96C164.519 7.98667 164.373 9.33333 164.373 11C164.373 12.6667 164.519 14.0133 164.813 15.04C165.106 16.0667 165.473 16.8 165.913 17.24C166.366 17.68 166.853 17.9 167.373 17.9ZM175.777 17.7L176.977 17.4V4.6L175.777 4.3V4H181.477V4.3L180.277 4.6V17.5H184.577C184.577 16.66 184.791 15.88 185.217 15.16C185.404 14.8533 185.624 14.6 185.877 14.4H186.477V18H175.777V17.7Z" fill="white"/>
<rect x="41.0005" y="51.812" width="32" height="1.54334" rx="0.771672" fill="#E3B873"/>
<path d="M123 52H154.5C154.776 52 155 52.2239 155 52.5V52.5C155 52.7761 154.776 53 154.5 53H60L123 52Z" fill="#E3B873"/>
<path d="M114.738 47.7655L83.644 38.8293C83.2463 38.7153 82.8044 38.8731 82.6578 39.1818C82.6575 39.1821 82.6575 39.1823 82.6571 39.1826L79.2151 46.4507C79.0688 46.7595 79.2728 47.102 79.6708 47.2155H79.6714L83.2756 48.2421L82.4815 49.9204C82.3355 50.2292 82.5395 50.5712 82.9375 50.6847L90.1472 52.738L89.6174 53.8569C89.1358 54.8589 89.5851 55.987 90.7119 56.6032V59.6434H80.3785C79.8783 58.7564 78.8547 58.1123 77.6323 57.9158V56.6648C77.6323 56.3357 77.2887 56.069 76.8643 56.069H73.768C73.3439 56.069 73 56.3357 73 56.6648V66.1965C73 66.5258 73.3439 66.7923 73.768 66.7923H76.8643C77.2887 66.7923 77.6323 66.5258 77.6323 66.1965V64.9457C78.8547 64.7489 79.8783 64.1051 80.3785 63.2178H90.7119V63.8136C90.7119 64.8007 91.7432 65.601 93.0156 65.601C94.288 65.601 95.3197 64.8007 95.3197 63.8136V57.214C96.0177 56.9455 96.5569 56.4797 96.8257 55.9122L97.3556 54.7934L103.844 56.6403C103.929 56.6645 104.018 56.6768 104.108 56.6768C104.43 56.6768 104.718 56.521 104.83 56.2865L105.117 55.6782C107.616 56.043 110.023 54.7672 110.493 52.8288C110.667 52.1125 110.554 51.3722 110.17 50.7072L114.825 48.8528C115.203 48.7028 115.352 48.3438 115.159 48.051C115.071 47.918 114.922 47.8155 114.742 47.7638L114.738 47.7655ZM92.2476 57.146L92.8835 57.3248C93.1729 57.4053 93.4765 57.4515 93.7836 57.4618V59.6434H92.2476V57.146ZM76.0966 65.601H74.536V57.2605H76.0966V65.601ZM79.1683 62.0265C79.167 62.7836 78.5521 63.4584 77.6323 63.7119V59.1496C78.5521 59.4029 79.167 60.0777 79.1683 60.835V62.0265ZM80.7282 60.835H93.7836V62.0265H80.7282V60.835ZM93.0156 64.4094C92.5915 64.4094 92.2476 64.1426 92.2476 63.8136V63.2178H93.7836V63.8136C93.7836 64.1426 93.4397 64.4094 93.0156 64.4094ZM95.914 54.3831L95.3841 55.5019C95.0915 56.119 94.2094 56.4355 93.4133 56.209L91.9688 55.7985C91.1727 55.5717 90.7641 54.8872 91.0564 54.2694C91.0564 54.2694 91.0564 54.2694 91.0564 54.2691L91.5866 53.1511L95.4792 54.2596L95.914 54.3831ZM103.653 55.3184L84.1877 49.7736L84.7179 48.6548L96.252 51.9405C96.525 52.0175 96.8312 51.9693 97.0436 51.8152L99.1988 50.2414L105.241 51.963L103.653 55.3184ZM108.845 52.9901C108.359 54.0079 107.05 54.6439 105.657 54.5391L106.844 52.0315L108.782 51.2572C109.085 51.8077 109.108 52.4273 108.845 52.9901ZM106.253 50.9302C106.212 50.9329 106.172 50.9384 106.133 50.9467L99.2855 48.9963C99.0125 48.9186 98.7063 48.9668 98.4942 49.1214L96.3365 50.6954L80.9216 46.3042L83.8332 40.1544L112.567 48.4126L106.253 50.9302Z" fill="#E3B873"/>
<path d="M88.0252 46.7034L87.3478 48.1233M90.9769 47.5434L90.2995 48.9633M93.8413 48.3699L93.1639 49.7898" stroke="#E3B873" stroke-linecap="round"/>
</svg>
